# xmcd
#
# Track frame offsets:
#	150
#	18192
#	33310
#	47757
#
# Disc length: 859 seconds
# Revision: 0
# Processed by: cddbd v1.5.2PL0 Copyright (c) Steve Scherf et al.
# Submitted via: dBpowerAMP V12.0
#
DISCID=25035904
DTITLE=Mary J. Blige - Everything
DYEAR=1997
DGENRE=R&B
TTITLE0=Everything [Radio Version]
TTITLE1=Everything [Remix With “Everything” Intro]
TTITLE2=Everything [Remix With Cold Intro]
TTITLE3=Everything [Classic Radio Edit]
EXTD=
EXTT0=
EXTT1=
EXTT2=
EXTT3=
PLAYORDER=
